<?xml version="1.0" encoding="iso-8859-1"?>
<!-- Uploaded to: SVG Repo, www.svgrepo.com, Generator: SVG Repo Mixer Tools -->
<svg fill="#000000" height="800px" width="800px" version="1.1" id="Layer_1" xmlns="http://www.w3.org/2000/svg" xmlns:xlink="http://www.w3.org/1999/xlink" 
	 viewBox="0 0 512 512" xml:space="preserve">
<g>
	<g>
		<path d="M482.358,75.453H29.642C13.297,75.453,0,88.75,0,105.095v301.811c0,16.345,13.297,29.642,29.642,29.642h452.716
			c16.344,0,29.642-13.297,29.642-29.642V105.095C512,88.75,498.702,75.453,482.358,75.453z M16.168,156.295h80.842v199.411H16.168
			V156.295z M495.832,406.905c0,7.43-6.044,13.474-13.474,13.474H29.642c-7.43,0-13.474-6.044-13.474-13.474v-35.032h479.663
			V406.905z M398.821,264.084v91.621H113.179v-91.621H398.821z M113.179,247.916v-91.621h285.642v91.621H113.179z M495.832,355.705
			h-80.842V156.295h80.842V355.705z M495.832,140.126H16.168v-35.032c0-7.43,6.044-13.474,13.474-13.474h452.716
			c7.43,0,13.474,6.044,13.474,13.474V140.126z"/>
	</g>
</g>
</svg>